# xmcd
#
# Track frame offsets:
#	182
#	33480
#	58820
#	80070
#	107537
#	132855
#	165065
#	193320
#	218797
#	244425
#	272015
#	293625
#	323595
#
# Disc length: 4715 seconds
# Revision: 0
# Processed by: cddbd v1.5.2PL0 Copyright (c) Steve Scherf et al.
# Submitted via: dBpowerAMP V12.0
#
DISCID=ba12690d
DTITLE=Various Artist - Prelude: The Sound of New York
DYEAR=1981
DGENRE=Disco
TTITLE0=Unlimited Touch - Searching to Find the One (Francois Kervorkian Mix)
TTITLE1=The Next Movement - Let's Work It Out (Francois Kervorkian Mix)
TTITLE2=Gayle Adams - Let's Go All the Way (Francois Kervorkian Album Mix)
TTITLE3=D-Train - Tryin' to Get Over (Francois Kervorkian Instrumental Mix)
TTITLE4=France Joli - Your Good Lovin' (Extended Album Mix)
TTITLE5=Michael Wilson - Groove It to Your Body (Francois Kervorkian Mix)
TTITLE6=Conquest - Body Movement (Francois Kervorkian Mix)
TTITLE7=The Gunchback Boogie Band - Funn (Extended Instrumental Mix)
TTITLE8=Gerald Mallory - Lay It Down On Me (Extended 12" Mix)
TTITLE9=Cliff Frazier and Co. - Video Freak (Extended 12" Mix)
TTITLE10=Secret Weapon - Do You Love Me? (Extended Album Mix)
TTITLE11=Unlimited Touch - Good Lovin' (Extended Album Mix)
TTITLE12=Wuf Ticket - The Key (Extended 12" Mix)
EXTD=
EXTT0=
EXTT1=
EXTT2=
EXTT3=
EXTT4=
EXTT5=
EXTT6=
EXTT7=
EXTT8=
EXTT9=
EXTT10=
EXTT11=
EXTT12=
PLAYORDER=
